<svg width="284" height="323" viewBox="0 0 284 323" fill="none" xmlns="http://www.w3.org/2000/svg">
<g clip-path="url(#clip0_1_69)">
<path d="M84.0646 207.026L25.0208 241.041L166.117 322.311L225.161 288.297L84.0646 207.026Z" fill="#C2C2C2"/>
<path d="M61.911 202.599L0 238.266L147.109 323L209.02 287.333L61.911 202.599Z" fill="#5E5E5E"/>
<path d="M61.7454 204.931L8.31874 235.71L149.898 317.259L203.325 286.48L61.7454 204.931Z" fill="#F2F2F2"/>
<path d="M63.0609 212.28L56.8741 215.844L64.2053 220.067L70.3922 216.502L63.0609 212.28Z" fill="#C4C4C4"/>
<path d="M72.1522 217.32L65.9656 220.884L138.668 262.76L144.854 259.196L72.1522 217.32Z" fill="#C4C4C4"/>
<path d="M158.394 266.993L152.208 270.557L142.153 264.766L148.339 261.202L158.394 266.993Z" fill="#C4C4C4"/>
<path d="M161.927 269.029L155.74 272.593L176.856 284.755L183.042 281.191L161.927 269.029Z" fill="#C4C4C4"/>
<path d="M53.9024 219.043L47.7159 222.607L169.119 292.535L175.306 288.971L53.9024 219.043Z" fill="#C4C4C4"/>
<path d="M45.8207 224.083L39.6342 227.647L161.038 297.575L167.224 294.011L45.8207 224.083Z" fill="#C4C4C4"/>
<path d="M37.7393 229.123L31.553 232.687L152.957 302.615L159.143 299.051L37.7393 229.123Z" fill="#C4C4C4"/>
<path d="M29.658 234.163L23.4716 237.727L144.875 307.655L151.061 304.09L29.658 234.163Z" fill="#C4C4C4"/>
<path d="M89.3345 149.558L283.821 261.611L283.816 112.053L89.3287 -3.43323e-05L89.3345 149.558Z" fill="#3A3A3C"/>
<path d="M78.2223 153.59L272.709 265.643L272.703 116.085L78.2168 4.03201L78.2223 153.59Z" fill="#C3C3C3"/>
<path d="M274.929 120.771L66.1597 0.489389L66.1607 26.7955L274.93 147.077L274.929 120.771Z" fill="#418621"/>
<path d="M67.3478 153.903L261.835 265.956L261.829 116.398L67.3423 4.34522L67.3478 153.903Z" fill="#C2C2C2"/>
<path d="M261.417 115.824L66.7258 3.65355L66.7319 166.843L261.424 279.013L261.417 115.824Z" fill="#F2F2F2"/>
<path d="M252.375 219.342L174.051 174.216V177.776L252.375 222.902L252.375 219.342Z" fill="#C2C2C2"/>
<path d="M252.402 226.478L174.051 181.337V184.897L252.402 230.038V226.478Z" fill="#C2C2C2"/>
<path d="M216.366 212.836L174.051 188.457V192.018L216.366 216.397V212.836Z" fill="#C2C2C2"/>
<path d="M204.428 123.807L191.694 116.47V118.718L204.428 126.055V123.807Z" fill="#B1B1B1"/>
<path d="M187.978 110.302L174.051 102.279L174.052 112.937L187.979 120.961L187.978 110.302Z" fill="#5E5E5E"/>
<path d="M207.376 125.279L220.111 132.616V134.864L207.376 127.527L207.376 125.279Z" fill="#B1B1B1"/>
<mask id="mask0_1_69" style="mask-type:alpha" maskUnits="userSpaceOnUse" x="173" y="122" width="81" height="90">
<path d="M252.225 168.684L174.331 123.806L174.333 164.967L252.226 209.845L252.225 168.684Z" fill="#F2F2F2" stroke="#5E5E5E" stroke-width="2"/>
</mask>
<g mask="url(#mask0_1_69)">
<path d="M252.225 168.684L174.331 123.806L174.333 164.967L252.226 209.845L252.225 168.684Z" fill="#F2F2F2" stroke="#5E5E5E" stroke-width="2"/>
<path d="M224.41 175.74C211.794 167.719 208.552 193.919 204.436 194.989L269.615 221.196V218.522C269.615 218.522 249.991 212.931 241.931 202.722C233.871 192.513 237.025 183.762 224.41 175.74Z" fill="#C3C3C3"/>
<path d="M247.558 172.867C263.088 174.913 259.61 210.852 261.671 214.031L187.773 187.304L189.953 185.484C189.953 185.484 208.496 193.357 222.563 191.201C236.631 189.046 232.028 170.821 247.558 172.867Z" fill="#B1B1B1"/>
<path fill-rule="evenodd" clip-rule="evenodd" d="M174.9 124.789L251.656 169.012L251.658 208.861L174.902 164.639L174.9 124.789ZM174.051 123.321L174.053 165.128L252.507 210.329L252.505 168.522L174.051 123.321Z" fill="#5E5E5E"/>
<path d="M191.115 162.401L181.892 157.088L181.893 163.63L191.115 168.943L191.115 162.401Z" fill="#418621"/>
<path d="M218.624 158.915L180.912 137.188V142.081L218.624 163.809L218.624 158.915Z" fill="#C3C3C3"/>
<path d="M197.789 156.045L180.912 146.322V151.215L197.789 160.939L197.789 156.045Z" fill="#5E5E5E"/>
<path d="M190.135 162.401L180.912 157.088L180.913 163.63L190.135 168.943L190.135 162.401Z" fill="#6FBF4A"/>
</g>
<path d="M237.753 142.892L225.019 135.556V137.804L237.753 145.141V142.892Z" fill="#B1B1B1"/>
<path d="M164.071 59.9385L66.7258 3.85307L66.7319 166.843L164.078 222.928L164.071 59.9385Z" fill="#F2F2F2"/>
<mask id="mask1_1_69" style="mask-type:alpha" maskUnits="userSpaceOnUse" x="215" y="169" width="53" height="75">
<path d="M266.739 200.276L216.402 171.275L216.403 212.436L266.74 241.437L266.739 200.276Z" fill="#F2F2F2" stroke="#5E5E5E" stroke-width="2"/>
</mask>
<g mask="url(#mask1_1_69)">
<path d="M266.79 200.306L216.402 171.275L216.403 212.436L266.792 241.467L266.79 200.306Z" fill="#F2F2F2" stroke="#5E5E5E" stroke-width="2"/>
<path d="M266.48 223.209C253.865 215.187 250.622 241.388 246.506 242.458L311.685 268.664V265.991C311.685 265.991 292.061 260.4 284.001 250.191C275.942 239.981 279.095 231.231 266.48 223.209Z" fill="#C3C3C3"/>
<path d="M289.628 220.336C305.158 222.382 301.679 258.321 303.741 261.5L229.843 234.774L232.023 232.952C232.023 232.952 250.566 240.825 264.633 238.671C278.7 236.515 274.098 218.29 289.628 220.336Z" fill="#B1B1B1"/>
<path fill-rule="evenodd" clip-rule="evenodd" d="M216.97 172.258L266.35 200.708L266.352 240.557L216.972 212.108L216.97 172.258ZM216.121 170.79L216.123 212.597L267.201 242.026L267.199 200.218L216.121 170.79Z" fill="#5E5E5E"/>
<path d="M260.694 206.384L222.982 184.657L222.982 189.55L260.694 211.278V206.384Z" fill="#C3C3C3"/>
<path d="M239.859 203.514L222.982 193.791L222.983 198.684L239.859 208.408V203.514Z" fill="#5E5E5E"/>
<path d="M233.185 209.87L223.962 204.557L223.963 211.099L233.185 216.412V209.87Z" fill="#418621"/>
<path d="M232.205 209.87L222.982 204.557L222.983 211.099L232.205 216.412L232.205 209.87Z" fill="#6FBF4A"/>
</g>
<path d="M92.9447 155.375L98.3355 146.811" stroke="#6FBF4A" stroke-width="2"/>
<path d="M166.521 86.8198L162.604 84.563L162.609 222.289L166.526 224.546L166.521 86.8198Z" fill="#B1B1B1"/>
<path d="M272.48 122.107L63.2191 1.54253L63.2201 27.8486L272.481 148.413L272.48 122.107Z" fill="#6FBF4A"/>
<path d="M256.34 121.054L246.133 115.174L246.133 126.877L256.34 132.758L256.34 121.054Z" fill="#F2F2F2"/>
<path d="M243.067 122.168L232.86 116.287V118.875L243.067 124.756L243.067 122.168Z" fill="#F2F2F2"/>
<path d="M76.5273 64.5974L80.9377 63.2822L76.527 56.7669" stroke="#6FBF4A" stroke-width="3" stroke-linecap="round" stroke-linejoin="round"/>
<path d="M91.4166 143.875L85.8385 145.843L91.4166 154.238" stroke="#6FBF4A" stroke-width="2" stroke-linecap="round" stroke-linejoin="round"/>
<path d="M99.5614 157.664L105.14 155.696L99.5604 147.301" stroke="#6FBF4A" stroke-width="2" stroke-linecap="round" stroke-linejoin="round"/>
<path fill-rule="evenodd" clip-rule="evenodd" d="M87.3087 63.8629C87.3087 63.4575 87.4561 63.214 87.6383 63.3187L154.467 101.822C154.649 101.927 154.797 102.341 154.797 102.746C154.797 103.151 154.649 103.395 154.467 103.29L87.6386 64.787C87.4562 64.682 87.3087 64.2683 87.3087 63.8629Z" fill="#C2C2C2"/>
<path fill-rule="evenodd" clip-rule="evenodd" d="M87.3087 74.8517C87.3087 74.4463 87.4561 74.2028 87.6383 74.3078L154.467 112.811C154.649 112.916 154.797 113.329 154.797 113.735C154.797 114.14 154.649 114.384 154.467 114.279L87.6386 75.7758C87.4562 75.6708 87.3087 75.2574 87.3087 74.8517Z" fill="#C2C2C2"/>
<path fill-rule="evenodd" clip-rule="evenodd" d="M87.3087 85.8408C87.3087 85.4354 87.4561 85.1919 87.6383 85.2965L154.467 123.8C154.649 123.905 154.797 124.319 154.797 124.724C154.797 125.129 154.649 125.373 154.467 125.268L87.6386 86.7649C87.4562 86.6599 87.3087 86.2462 87.3087 85.8408Z" fill="#C2C2C2"/>
<path fill-rule="evenodd" clip-rule="evenodd" d="M87.3087 96.8296C87.3087 96.4242 87.4561 96.1807 87.6383 96.2856L154.467 134.789C154.649 134.894 154.797 135.307 154.797 135.713C154.797 136.118 154.649 136.362 154.467 136.257L87.6386 97.7537C87.4562 97.6487 87.3087 97.2353 87.3087 96.8296Z" fill="#C2C2C2"/>
<path fill-rule="evenodd" clip-rule="evenodd" d="M87.3087 107.818C87.3087 107.413 87.4561 107.169 87.6383 107.274L154.467 145.777C154.649 145.882 154.797 146.296 154.797 146.701C154.797 147.107 154.649 147.351 154.467 147.246L87.6386 108.742C87.4562 108.637 87.3087 108.224 87.3087 107.818Z" fill="#C2C2C2"/>
<path fill-rule="evenodd" clip-rule="evenodd" d="M87.3087 118.808C87.3087 118.402 87.4561 118.159 87.6383 118.264L154.467 156.767C154.649 156.872 154.797 157.285 154.797 157.691C154.797 158.096 154.649 158.34 154.467 158.235L87.6386 119.732C87.4562 119.627 87.3087 119.213 87.3087 118.808Z" fill="#C2C2C2"/>
<path fill-rule="evenodd" clip-rule="evenodd" d="M87.3087 129.797C87.3087 129.391 87.4561 129.147 87.6383 129.252L154.467 167.756C154.649 167.861 154.797 168.274 154.797 168.68C154.797 169.085 154.649 169.329 154.467 169.224L87.6386 130.72C87.4562 130.616 87.3087 130.202 87.3087 129.797Z" fill="#C2C2C2"/>
<path d="M72.9812 27.0432C74.812 28.0979 76.2957 26.8323 76.2957 24.2163C76.2957 21.6003 74.8117 18.6245 72.9809 17.5698C71.1501 16.515 69.666 17.7807 69.6664 20.3967C69.6664 23.0127 71.1504 25.9885 72.9812 27.0432Z" fill="white"/>
<path d="M81.3123 32.4263C83.1431 33.4809 84.6271 32.2153 84.6268 29.5993C84.6268 26.9833 83.1428 24.0075 81.312 22.9528C79.4812 21.898 77.9971 23.1637 77.9975 25.7797C77.9975 28.3957 79.4815 31.3714 81.3123 32.4263Z" fill="white"/>
<path d="M89.6434 37.8091C91.4742 38.864 92.9582 37.5982 92.9582 34.9822C92.9579 32.3662 91.4739 29.3905 89.6431 28.3358C87.8126 27.281 86.3286 28.5467 86.3286 31.1627C86.3286 33.7787 87.8129 36.7545 89.6434 37.8091Z" fill="white"/>
<path d="M226.556 226.689L175.401 197.216L175.402 210.738L226.556 240.211L226.556 226.689Z" fill="#418621"/>
<path d="M224.907 227.272L173.975 197.928L173.976 210.945L224.908 240.289L224.907 227.272Z" fill="#6FBF4A"/>
<mask id="mask2_1_69" style="mask-type:alpha" maskUnits="userSpaceOnUse" x="173" y="197" width="53" height="44">
<path d="M225.049 227.355L173.975 197.928L173.976 210.946L225.05 240.372L225.049 227.355Z" fill="#FBBB51"/>
</mask>
<g mask="url(#mask2_1_69)">
<path d="M169.319 209.94L235.969 230.004" stroke="#418621" stroke-width="2"/>
<path d="M169.074 194.769L228.618 242.972" stroke="#418621" stroke-width="2"/>
</g>
</g>
<defs>
<clipPath id="clip0_1_69">
<rect width="284" height="323" fill="white"/>
</clipPath>
</defs>
</svg>