/// <reference types="vite-plugin-svgr/client" />
<svg xmlns="http://www.w3.org/2000/svg" height="309.4" viewBox="0 0 309.43 309.4" width="309.43"><g fill="#3dd6ba" stroke="#3dd6ba" stroke-miterlimit="10" stroke-width=".75"><path d="m289.73 42.57c-.08 0-.16.02-.24.02l-136.27-42c-.93-.29-1.92-.29-2.84 0l-136.89 42.19c-2.01.62-3.38 2.47-3.4 4.57s1.33 3.97 3.33 4.62l44.02 14.34v62.71c0 2.79 1.24 5.44 3.39 7.22 8.56 7.12 40.44 30.34 90.96 30.34 32.67-.2 64.43-10.79 90.68-30.23 2.33-1.77 3.69-4.53 3.68-7.45v-62.35c0-.08-.02-.16-.02-.24l38.78-12.63v64.36c-2.15.93-3.98 2.47-5.27 4.42-1.29 1.96-1.98 4.25-1.98 6.59 0 2.49.79 4.92 2.25 6.94l-9.25 27.55c-.03.1-.04.21-.07.31-.05.18-.09.37-.12.55-.02.16-.03.31-.03.47-.03.34-.01.68.06 1.01.02.11.02.22.05.34 0 .03.02.07.03.1.01.04.02.08.03.12 1.78 6.81 9.28 11.87 18.36 12.34.46.02.91.04 1.36.04 3.85.19 7.67-.81 10.94-2.87 3.26-2.06 5.81-5.08 7.28-8.65.04-.08.07-.16.11-.25.05-.12.11-.23.16-.35.02-.06.02-.11.04-.17.05-.16.09-.32.12-.49.03-.15.06-.3.08-.45s.02-.3.02-.45c0-.17 0-.34-.01-.5-.01-.14-.04-.27-.06-.4-.03-.18-.07-.36-.12-.54-.02-.05-.02-.1-.03-.15l-9.25-27.55c1.46-2.02 2.24-4.45 2.25-6.94 0-2.34-.7-4.63-1.99-6.59s-3.12-3.49-5.27-4.42v-70.66c0-2.66-2.16-4.82-4.82-4.82zm-2.44 86.47c-.02-.99.56-1.9 1.47-2.29s1.97-.2 2.67.49c.71.69.93 1.75.55 2.66-.37.92-1.27 1.52-2.26 1.52-1.33.01-2.42-1.05-2.44-2.38zm-135.49-118.8 108.77 33.53h-108.77c-2.66 0-4.82 2.16-4.82 4.82s2.16 4.82 4.82 4.82h102.83l-102.83 33.5-120.93-39.4zm84.81 118.47c-24.56 18.17-54.26 28.06-84.81 28.24-47.3 0-76.87-21.52-84.71-27.92v-59.57l83.22 27.11c.97.32 2.02.32 2.98 0l83.23-27.11zm52.85 40.43c-3.51.02-6.84-1.52-9.12-4.19l8.06-24.01c.88.18 1.78.18 2.66 0l8 23.82c-2.37 4.21-7.41 4.48-9.61 4.37z"></path><path d="m.9 206.86c-1.78 10.96.98 22.17 7.65 31.05.03.04.06.06.09.09.16.19.34.36.53.52.08.06.14.14.22.2.25.19.52.36.81.5.02.01.04.03.06.04.3.14.61.25.93.32.4.09 32.48 7.73 59.57 15.6-4.29 4.69-12.48 10.05-20.72 10.05-.18 0-.35 0-.53 0-.02 0-.04 0-.06 0-.2 0-.39.03-.58.06-.12.02-.25.02-.37.05-.16.04-.32.09-.48.15-.14.05-.28.08-.41.14-.15.06-.28.15-.43.23-.13.07-.26.13-.37.21-.14.1-.27.21-.4.33-.1.09-.21.16-.3.26-.11.12-.22.25-.33.39-.09.11-.19.22-.27.34s-.15.26-.22.39c-.09.15-.16.3-.23.45-.02.04-.04.07-.05.11-.04.11-.06.22-.09.33-.11.32-.18.66-.19 1 0 .1-.03.19-.04.29v.12c0 .19.02.37.04.55.02.14.03.28.05.42.03.15.08.3.13.45s.09.31.15.45c.06.13.13.26.2.39.07.14.15.28.24.42.09.13.19.24.28.36s.19.24.3.35.23.21.36.31c.12.1.23.2.36.29.12.08.26.15.39.22.15.08.3.16.45.23.04.02.08.04.12.06l7.7 2.96-.64 2.38s0 .06-.02.09c-.04.15-.05.3-.07.46-.03.17-.05.34-.06.51v.07c0 .11.02.21.02.31 0 .19.02.38.04.57.02.15.07.29.11.44.04.16.08.31.13.46.06.15.13.3.2.44.06.13.12.26.2.39.08.14.18.26.28.39.09.12.18.24.28.35s.22.21.34.32.23.21.36.31c.13.09.26.17.4.25.13.08.26.16.4.23.16.07.32.13.48.18.12.04.22.1.34.13h.07c.35.09.7.14 1.06.15h.13.31c10.12 0 20.74-7.87 27.73-15.32 1.47 10.25 5.75 23 14.27 28.7 1.62.8 3.52.78 5.12-.05s2.72-2.37 3-4.15l.05-.51 7.84 2.04c.37.09.74.14 1.12.14.03 0 .06.01.09.01.08 0 .15-.02.23-.03.25 0 .51-.04.76-.09.11-.02.22-.05.34-.08.24-.07.48-.16.71-.27.1-.05.19-.08.29-.13.31-.17.61-.37.88-.61l.03-.04c.26-.24.49-.51.69-.8.02-.03.06-.06.08-.09.05-.08.09-.17.14-.25.09-.15.17-.3.25-.46.07-.15.12-.31.18-.47.03-.09.08-.18.1-.28.01-.05.01-.1.02-.15.04-.17.06-.34.08-.52.02-.15.04-.29.04-.44 0-.16-.01-.31-.02-.47s-.02-.32-.05-.47-.07-.29-.11-.43c-.04-.15-.08-.31-.14-.45s-.13-.28-.2-.42-.13-.27-.21-.4-.18-.26-.28-.38c-.09-.12-.19-.25-.29-.36s-.21-.2-.32-.3c-.13-.12-.27-.23-.41-.34-.04-.03-.07-.06-.11-.09-6.33-4.24-9.99-12.3-11.24-18.55 29.53 13.36 62.86 33.1 63.27 33.35.63.36 1.33.57 2.05.62.6.34 1.17.72 1.79 1.03 5.79 2.97 12.2 4.54 18.71 4.57 10.91.06 21.29-4.73 28.32-13.08 9.64-11.79 13.83-27.12 11.52-42.17-2.16-14.59-11-25.54-23.06-28.59-.21-.05-.43-.07-.64-.11-.04 0-.07-.03-.11-.04-.54-.11-54.11-11.34-89.88-27.85-34.41-15.88-75.15-36.92-75.56-37.13-1.06-.55-2.29-.68-3.44-.37-.22-.01-.45 0-.68.01-5.66.64-11.55 4.72-15.78 10.93-2.61 3.71-4.26 8.01-4.81 12.52l-2.74-1.05c-.08-.03-.16-.04-.24-.06-.22-.08-.44-.14-.67-.18-.12-.02-.25-.02-.37-.03-.19-.02-.38-.04-.57-.04-.11 0-.21.02-.31.03-.21.01-.42.04-.63.08-.08.02-.15.05-.22.07-.23.06-.45.13-.67.22-.08.03-.15.09-.23.12-.2.09-.39.2-.58.32-7.88 5.75-12.98 14.55-14.08 24.24zm122.21 1.7c-7.66 3-14.27 8.2-18.99 14.94-5.76 8.7-8.16 19.21-6.73 29.55l-4.02-1.06c-3.29-10.19-2-21.3 3.53-30.47 4.9-8.46 12.48-14.39 20.02-15.75l6.18 2.78zm-57.04 66.25c.06-1.31-.41-2.59-1.31-3.55 6.33-2.95 11.8-7.47 15.89-13.13 1.31.4 2.6.81 3.85 1.21-4.82 6.55-11.14 11.85-18.43 15.46zm39.5 8.92c-1.32.02-2.57.58-3.45 1.56-3.4-6.76-5.29-14.17-5.56-21.73 1.25.48 2.52.99 3.81 1.52.24 6.54 2.02 12.93 5.2 18.65zm121.05-28.56c1.91 12.32-1.48 24.86-9.35 34.53-8.5 10.04-22.69 12.5-35.33 6.13-7.35-3.9-12.72-10.72-14.77-18.79-2.9-10.23-1.46-21.2 3.97-30.34.12-.22.23-.44.32-.67.02-.04.05-.07.06-.11v-.05h.02c.05-.17.1-.33.14-.5.04-.14.09-.29.11-.43s.02-.28.03-.42c.02-.17.03-.35.03-.52 0-.11-.03-.21-.04-.32-.02-.2-.04-.4-.08-.6-.03-.11-.07-.21-.1-.31-.05-.19-.12-.38-.19-.56-.05-.11-.12-.21-.18-.32-.08-.17-.18-.33-.28-.48-.06-.09-.15-.17-.22-.25-.12-.16-.26-.32-.4-.46-.07-.07-.16-.12-.23-.18-.17-.15-.35-.28-.53-.41l-.03-.02c-.11-.07-.23-.11-.35-.17-.14-.08-.29-.16-.44-.22l-40.3-15.55c-3.57 1.48-6.71 3.82-9.16 6.8l40.99 15.81c-4.59 10.37-5.43 22.01-2.39 32.93.36 1.26.78 2.47 1.23 3.66-14.07-7.78-33.55-18.04-51.06-25.51-2.73-11.08-1.36-21.06 4.01-28.87 5.47-7.94 14.76-13.03 26.18-14.32.31-.06.61-.14.9-.26 17.79 6.33 35.89 11.72 54.24 16.17-.4.32-.8.6-1.19.95-8.09 7.31-13.01 17.48-13.73 28.36 0 .08-.03.14-.04.22-.02.24 0 .43 0 .67-.05 1.07-.06 2.13-.02 3.2v.24c.04.88.1 1.76.2 2.64.04.33.11.66.22.98.67 4.48 2.72 8.64 5.86 11.91 3.19 3.3 7.55 5.2 12.14 5.31h.47c4.3-.19 8.33-2.14 11.15-5.39 4.37-4.84 8.94-17.13 3.3-22.66-1.83-1.8-4.76-1.85-6.65-.11s-2.08 4.66-.44 6.63c-.01 3.51-1.2 6.92-3.38 9.67-1.06 1.31-2.61 2.11-4.29 2.21-2.11-.1-4.1-1.02-5.56-2.55-.91-.9-3.86-4.42-3.38-12.11.51-8.4 4.27-16.27 10.48-21.94 4.13-3.61 8.57-5.16 12.19-4.23 12.36 3.12 15.28 16.6 15.89 20.65zm-216.17-46.93c.7-6.18 3.57-11.91 8.09-16.17l60.93 23.51c1.16-2.5 2.49-4.91 3.98-7.23.27-.43.56-.83.85-1.25l-52.35-20.2c-.01-.05-.01-.11-.03-.16-.43-3.83.68-7.67 3.07-10.69 1.94-3.31 5.1-5.74 8.81-6.76 6.26 3.22 34.07 17.45 61.58 30.53-7.03 3.98-12.84 9.82-16.8 16.86-5.68 9.63-7.79 20.94-5.97 31.96-25.35-7.79-59.39-16.1-67.41-18.03-4.28-6.62-5.96-14.59-4.74-22.37z"></path></g></svg>